<mxfile host="Electron" modified="2024-04-07T13:02:28.806Z" agent="Mozilla/5.0 (Windows NT 10.0; Win64; x64) AppleWebKit/537.36 (KHTML, like Gecko) draw.io/22.1.11 Chrome/114.0.5735.289 Electron/25.9.8 Safari/537.36" etag="Y6ORmDhzvzv2FA2FwWqB" version="22.1.11" type="device">
  <diagram name="第 1 页" id="2YUHXzyUau3bAzvLj1TO">
    <mxGraphModel dx="1098" dy="828" grid="1" gridSize="10" guides="1" tooltips="1" connect="1" arrows="1" fold="1" page="1" pageScale="1" pageWidth="827" pageHeight="1169" math="0" shadow="0">
      <root>
        <mxCell id="0" />
        <mxCell id="1" parent="0" />
        <mxCell id="nKoONLERmjCCwxkXu53G-1" value="片元着色器" style="rounded=1;whiteSpace=wrap;html=1;" vertex="1" parent="1">
          <mxGeometry x="320" y="360" width="120" height="60" as="geometry" />
        </mxCell>
        <mxCell id="nKoONLERmjCCwxkXu53G-2" value="输出" style="html=1;shadow=0;dashed=0;align=center;verticalAlign=middle;shape=mxgraph.arrows2.arrow;dy=0.6;dx=40;notch=0;" vertex="1" parent="1">
          <mxGeometry x="460" y="367.5" width="70" height="45" as="geometry" />
        </mxCell>
        <mxCell id="nKoONLERmjCCwxkXu53G-3" value="输入" style="html=1;shadow=0;dashed=0;align=center;verticalAlign=middle;shape=mxgraph.arrows2.arrow;dy=0.6;dx=40;notch=0;" vertex="1" parent="1">
          <mxGeometry x="230" y="367.5" width="70" height="45" as="geometry" />
        </mxCell>
        <mxCell id="nKoONLERmjCCwxkXu53G-4" value="片元颜色" style="text;html=1;align=center;verticalAlign=middle;resizable=0;points=[];autosize=1;strokeColor=none;fillColor=none;" vertex="1" parent="1">
          <mxGeometry x="560" y="375" width="70" height="30" as="geometry" />
        </mxCell>
        <mxCell id="nKoONLERmjCCwxkXu53G-5" value="颜色" style="text;html=1;align=center;verticalAlign=middle;resizable=0;points=[];autosize=1;strokeColor=none;fillColor=none;" vertex="1" parent="1">
          <mxGeometry x="130" y="330" width="50" height="30" as="geometry" />
        </mxCell>
        <mxCell id="nKoONLERmjCCwxkXu53G-6" value="纹理坐标" style="text;html=1;align=center;verticalAlign=middle;resizable=0;points=[];autosize=1;strokeColor=none;fillColor=none;" vertex="1" parent="1">
          <mxGeometry x="120" y="360" width="70" height="30" as="geometry" />
        </mxCell>
        <mxCell id="nKoONLERmjCCwxkXu53G-7" value="纹理" style="text;html=1;align=center;verticalAlign=middle;resizable=0;points=[];autosize=1;strokeColor=none;fillColor=none;" vertex="1" parent="1">
          <mxGeometry x="130" y="390" width="50" height="30" as="geometry" />
        </mxCell>
        <mxCell id="nKoONLERmjCCwxkXu53G-8" value="其他" style="text;html=1;align=center;verticalAlign=middle;resizable=0;points=[];autosize=1;strokeColor=none;fillColor=none;" vertex="1" parent="1">
          <mxGeometry x="130" y="420" width="50" height="30" as="geometry" />
        </mxCell>
      </root>
    </mxGraphModel>
  </diagram>
</mxfile>
